<svg width="160" height="31" viewBox="0 0 160 31" fill="none" xmlns="http://www.w3.org/2000/svg">
<path fill-rule="evenodd" clip-rule="evenodd" d="M39.1778 24.0472C36.5081 24.0472 34.6677 21.822 34.6677 18.9143C34.6677 16.0066 36.5075 13.7809 39.1778 13.7809C41.8482 13.7809 43.688 16.0066 43.688 18.9143C43.6874 21.822 41.8778 24.0472 39.1778 24.0472ZM39.1778 11.3479C35.4692 11.3479 32.0571 14.5226 32.0571 18.9143C32.0571 23.3055 35.4698 26.4802 39.1778 26.4802C42.9166 26.4802 46.2985 23.3055 46.2985 18.9143C46.2985 14.5226 42.8859 11.3479 39.1778 11.3479Z" fill="black"/>
<path fill-rule="evenodd" clip-rule="evenodd" d="M65.5838 11.3479C63.2994 11.3479 61.845 12.6207 61.0441 13.7165H60.5403C59.6796 12.5029 58.3441 11.3479 56.3865 11.3479C54.4277 11.3479 53.152 12.5029 52.5885 13.1541H52.1729L51.6686 11.4959H49.9478V26.302H52.5589V17.8623C52.5589 15.1385 54.2205 13.5981 56.1485 13.5981C58.7005 13.5981 59.0568 16.2929 59.0568 19.1659V26.302H61.6674V17.6557C61.7573 15.0497 63.3888 13.5987 65.2576 13.5987C67.8095 13.5987 68.1653 16.2935 68.1653 19.1665V26.3025H70.777V18.2773C70.7764 14.1907 68.9958 11.3479 65.5838 11.3479Z" fill="black"/>
<path fill-rule="evenodd" clip-rule="evenodd" d="M81.9891 11.3479C79.5379 11.3479 78.2093 12.5325 77.648 13.1831H77.2939L76.7623 11.4959H75.0488V26.302H77.6474V17.8623C77.6474 15.2563 79.4201 13.5981 81.6344 13.5981C84.5569 13.5981 85.0004 16.5297 85.0004 19.1659V26.302H87.599V18.2773C87.5995 14.1611 85.7398 11.3479 81.9891 11.3479Z" fill="black"/>
<path d="M94.8971 11.496H92.3008V26.3021H94.8971V11.496Z" fill="black"/>
<path d="M93.5996 8.49744C94.5653 8.49744 95.3483 7.71451 95.3483 6.74872C95.3483 5.78293 94.5653 5 93.5996 5C92.6338 5 91.8508 5.78293 91.8508 6.74872C91.8508 7.71451 92.6338 8.49744 93.5996 8.49744Z" fill="black"/>
<path fill-rule="evenodd" clip-rule="evenodd" d="M104.606 17.5798C103.152 17.1938 101.758 16.7196 101.758 15.3546C101.758 14.1375 102.825 13.3662 104.191 13.3662C105.763 13.3662 106.919 14.3744 106.919 15.473H109.323C109.323 13.4254 107.513 11.26 104.19 11.26C101.46 11.26 99.2939 12.7435 99.2939 15.3836C99.2939 18.3511 102.054 19.152 104.071 19.6865C105.703 20.1311 107.157 20.6059 107.157 22.1189C107.157 23.5734 105.852 24.2553 104.457 24.2553C102.825 24.2553 101.253 23.3052 101.253 21.4666H98.8499C98.8499 24.1665 101.075 26.3917 104.488 26.3917C107.395 26.3917 109.621 24.7602 109.621 22.0005C109.62 18.9443 106.861 18.1724 104.606 17.5798Z" fill="black"/>
<path fill-rule="evenodd" clip-rule="evenodd" d="M115.408 17.342C115.884 14.9682 117.546 13.4552 119.744 13.4552C121.971 13.4552 123.456 15.0576 123.812 17.342H115.408ZM119.774 11.2596C116.062 11.2596 112.736 14.1081 112.736 18.707C112.736 23.3361 116.061 26.3918 119.803 26.3918C122.506 26.3918 125.06 24.79 126.188 22.0895H123.456C122.743 23.2468 121.496 23.9885 119.803 23.9885C117.249 23.9885 115.527 22.2671 115.289 19.5079H126.514C126.812 13.9003 123.337 11.2596 119.774 11.2596Z" fill="black"/>
<path fill-rule="evenodd" clip-rule="evenodd" d="M137.122 11.3479C134.67 11.3479 133.342 12.5325 132.781 13.1831H132.427L131.894 11.4959H130.181V26.302H132.78V17.8623C132.78 15.2563 134.552 13.5981 136.767 13.5981C139.69 13.5981 140.134 16.5297 140.134 19.1659V26.302H142.732V18.2773C142.732 14.1611 140.872 11.3479 137.122 11.3479Z" fill="black"/>
<path fill-rule="evenodd" clip-rule="evenodd" d="M153.235 24.0106C151.02 24.0106 148.804 22.0848 148.804 18.8851C148.804 15.6848 151.019 13.759 153.235 13.759C155.185 13.759 157.49 15.2408 157.49 18.8851C157.489 22.5294 155.185 24.0106 153.235 24.0106ZM157.489 5.25507V13.6993C156.544 12.3063 155.096 11.3289 153.028 11.3289C149.276 11.3289 146.203 14.499 146.203 18.8845C146.203 23.2694 149.276 26.4395 153.028 26.4395C154.948 26.4395 156.337 25.6107 157.252 24.3954H157.725L158.286 26.2915H160V5.25507H157.489Z" fill="black"/>
<path d="M17.5174 5.29535H3.66879C1.64227 5.29535 0 6.93762 0 8.96414V22.8122C0 24.8381 1.64227 26.4804 3.66879 26.4804H5.21657H9.97489V23.4429C9.97489 20.521 9.61342 18.2741 7.44061 17.6252V15.2315C10.9739 15.5475 12.7289 18.1785 12.7289 22.5002V26.4804H15.607H17.5168C19.5428 26.4804 21.185 24.8381 21.185 22.8122V8.96357C21.1856 6.93762 19.5433 5.29535 17.5174 5.29535ZM10.6984 12.9477C9.57698 12.9477 8.6679 12.0386 8.6679 10.9172C8.6679 9.79637 9.57698 8.88729 10.6984 8.88729C11.8198 8.88729 12.7289 9.79637 12.7289 10.9172C12.7289 12.0381 11.8204 12.9477 10.6984 12.9477Z" fill="black"/>
</svg>
